HIERARCHY
ROOT hip
{
	OFFSET 0.000000 0.000000 0.000000 
	CHANNELS 6 Xposition Yposition Zposition Xrotation Zrotation Yrotation
	JOINT abdomen
	{
		OFFSET 0.000000 3.402643 0.000000 
		CHANNELS 3 Xrotation Zrotation Yrotation
		JOINT chest
		{
			OFFSET 0.000000 8.438565 -0.680529 
			CHANNELS 3 Xrotation Zrotation Yrotation
			JOINT neck
			{
				OFFSET 0.000000 10.207942 -0.272212 
				CHANNELS 3 Xrotation Zrotation Yrotation
				JOINT head
				{
					OFFSET 0.000000 3.130431 0.000000 
					CHANNELS 3 Xrotation Zrotation Yrotation
					End Site
					{
						OFFSET 0.000000 3.130435 0.000000 
					}
				}
			}
			JOINT lCollar
			{
				OFFSET 3.470700 6.669187 -0.816635 
				CHANNELS 3 Yrotation Zrotation Xrotation
				JOINT lShldr
				{
					OFFSET 3.198488 0.000000 0.000000 
					CHANNELS 3 Zrotation Yrotation Xrotation
					JOINT lForeArm
					{
						OFFSET 10.139888 0.000000 0.000000 
						CHANNELS 3 Yrotation Zrotation Xrotation
						JOINT lHand
						{
							OFFSET 8.370511 0.000000 0.000000 
							CHANNELS 3 Zrotation Yrotation Xrotation
							End Site
							{
								OFFSET 4.083176 0.000000 0.000000 
							}
						}
					}
				}
			}
			JOINT rCollar
			{
				OFFSET -3.470700 6.669187 -0.816635 
				CHANNELS 3 Yrotation Zrotation Xrotation
				JOINT rShldr
				{
					OFFSET -3.198488 0.000000 0.000000 
					CHANNELS 3 Zrotation Yrotation Xrotation
					JOINT rForeArm
					{
						OFFSET -10.139888 0.000000 0.000000 
						CHANNELS 3 Yrotation Zrotation Xrotation
						JOINT rHand
						{
							OFFSET -8.370511 0.000000 0.000000 
							CHANNELS 3 Zrotation Yrotation Xrotation
							End Site
							{
								OFFSET -4.083176 0.000000 0.000000 
							}
						}
					}
				}
			}
		}
	}
	JOINT lThigh
	{
		OFFSET 5.308129 -1.633274 1.361059 
		CHANNELS 3 Xrotation Zrotation Yrotation
		JOINT lShin
		{
			OFFSET -2.041588 -20.007561 0.000000 
			CHANNELS 3 Xrotation Zrotation Yrotation
			JOINT lFoot
			{
				OFFSET 0.000000 -19.190928 -1.224953 
				CHANNELS 3 Xrotation Yrotation Zrotation
				End Site
				{
					OFFSET 0.000000 -2.449906 4.627600 
				}
			}
		}
	}
	JOINT rThigh
	{
		OFFSET -5.308129 -1.633274 1.361059 
		CHANNELS 3 Xrotation Zrotation Yrotation
		JOINT rShin
		{
			OFFSET 2.041588 -20.007561 0.000000 
			CHANNELS 3 Xrotation Zrotation Yrotation
			JOINT rFoot
			{
				OFFSET 0.000000 -19.190928 -1.224953 
				CHANNELS 3 Xrotation Yrotation Zrotation
				End Site
				{
					OFFSET 0.000000 -2.449906 4.627600 
				}
			}
		}
	}
}
MOTION
Frames: 11
Frame Time: 0.033333
-0.509196 47.371197 -0.253724 22.784466 -2.436821 -6.207168 0.000000 0.000000 0.000000 1.503832 1.406261 6.730555 7.626968 3.017562 0.186318 -7.183574 -3.232322 0.449605 -3.810597 28.432667 24.992395 -93.059822 2.629083 0.153045 -55.878223 -9.919484 93.120224 -15.135612 -7.663840 -54.609043 -15.125001 -16.154867 19.944124 62.808514 5.113237 67.067482 55.839630 -38.439674 57.472668 36.212334 3.712428 -79.743874 -28.051992 13.667149 19.151007 44.533943 8.872832 0.080387 -28.015697 3.700436 1.531878 -27.107849 -5.780876 0.407559 30.219526 4.369175 2.673026 -14.795788 6.513003 13.869822 
-0.545494 47.218834 -0.482394 23.242737 -2.681361 -5.836921 0.000000 0.000000 0.000000 2.852098 1.338507 6.681734 5.877956 2.871080 0.176050 -8.084001 -3.124951 0.322319 -3.882997 29.509699 24.985847 -93.947166 1.913221 0.631602 -54.152687 -10.294683 89.487068 -13.277367 -4.763584 -55.904114 -14.744528 -16.655958 19.908159 63.687881 5.050833 67.624741 55.336525 -39.351055 57.262951 36.620495 4.223684 -79.663940 -33.542416 14.226523 18.374300 51.720516 10.533669 0.087283 -28.668011 4.476544 0.672592 -31.214561 -5.418975 0.720882 36.615921 3.655686 3.122085 -17.515686 6.112514 13.217599 
-0.536296 46.916737 -0.711255 23.395927 -2.858294 -5.417040 0.000000 0.000000 0.000000 4.648143 1.261088 6.612944 4.060351 2.626942 0.166289 -9.243585 -3.154261 0.273561 -4.132505 29.994816 24.995184 -95.370560 1.279236 1.400300 -53.806126 -9.415345 88.104805 -13.327276 -4.669542 -55.978111 -14.228126 -17.211100 19.939821 64.396202 5.080497 68.049088 55.208733 -40.396873 57.082283 37.336067 4.598345 -79.628822 -38.460995 14.604791 17.548618 58.191231 11.734544 0.078314 -29.062527 5.238233 -0.065173 -35.590466 -5.458141 0.922891 43.763737 3.234964 3.714674 -20.455503 5.987174 12.620313 
-0.501352 46.437721 -0.935146 23.241226 -2.976721 -5.045938 0.000000 0.000000 0.000000 6.764014 1.164287 6.524863 2.281436 2.363274 0.146762 -10.667942 -3.476536 0.224788 -4.679221 29.995773 24.994907 -96.928566 0.662384 2.211700 -53.922195 -8.207473 86.707703 -12.978400 -4.077346 -56.199883 -13.390881 -17.856182 20.051069 65.194374 5.382905 68.491280 54.722794 -41.386559 55.913937 37.483932 4.430682 -79.638916 -42.574757 15.046521 16.803898 63.900108 12.454941 0.020423 -29.478554 5.850321 -1.068270 -39.808350 -5.741651 1.085350 50.803192 3.046690 4.320770 -22.865675 5.976593 12.597311 
-0.460470 45.785881 -1.180659 23.107925 -3.017293 -4.674848 0.000000 0.000000 0.000000 8.885219 1.028672 6.417081 0.483738 2.187494 0.136992 -12.105333 -3.945311 -0.059127 -5.529403 29.991678 24.995928 -98.378357 -0.337750 2.932039 -54.338757 -7.077794 86.325363 -12.598273 -4.648999 -56.107761 -12.352432 -18.548241 20.231655 66.316315 6.101390 69.050934 53.234772 -42.183407 53.075550 36.445606 3.651210 -79.620834 -46.385498 15.516957 16.090788 69.163734 12.805370 -0.057516 -29.799252 6.354399 -2.350003 -43.974426 -6.191352 1.170131 57.312397 2.950717 4.963250 -24.376392 6.108592 12.628310 
-0.432814 45.003277 -1.474996 23.341795 -3.097201 -4.186234 0.000000 0.000000 0.000000 10.700122 0.941493 6.329032 -1.518262 2.167963 0.136990 -13.010109 -3.915843 -0.538523 -6.190265 29.990383 24.991810 -99.989769 -2.044842 3.701442 -54.007950 -5.696127 84.634476 -11.944518 -5.555244 -56.020134 -11.385461 -19.116335 20.450569 67.742661 7.209411 69.712379 50.915951 -43.173077 49.663033 35.571384 3.320379 -79.586929 -50.740261 15.956048 15.172078 74.544403 13.106999 -0.122451 -29.726288 6.886826 -3.518375 -48.388268 -6.718635 1.276775 63.350559 2.999058 5.523530 -25.471390 6.592537 11.190952 
-0.408630 44.108135 -1.685898 23.298763 -3.285900 -3.198739 0.000000 0.000000 0.000000 12.585567 0.961068 6.241155 -3.470140 2.353507 0.156519 -13.694562 -3.690646 -1.164728 -6.917062 29.995159 24.995022 -101.723030 -3.908407 4.480101 -53.940456 -4.485056 82.940155 -13.148857 -6.017480 -55.735657 -10.597057 -19.271528 20.698620 68.649811 8.054781 70.105721 48.933598 -44.249836 46.551308 35.105186 3.654439 -79.517616 -55.035374 15.984361 14.108459 80.055084 13.604531 -0.103593 -29.715145 7.229691 -4.005151 -52.213249 -7.626180 1.202351 69.291992 3.047373 6.065407 -26.426035 6.559103 11.854484 
-0.364027 43.162544 -1.776793 22.696476 -3.591803 -1.889016 0.000000 0.000000 0.000000 14.781373 1.223268 6.202672 -5.314441 2.548816 0.176042 -14.378443 -3.825808 -1.996869 -7.744575 29.992002 24.994806 -103.194534 -5.762423 5.128904 -54.389690 -3.999552 83.693184 -14.224035 -6.558306 -55.422531 -10.219373 -19.239098 20.832050 69.121513 8.834612 70.230362 47.343010 -45.077858 43.953705 34.864552 3.999321 -79.433838 -58.419521 15.620701 13.074620 85.042091 14.208383 -0.062654 -30.310846 7.391235 -3.479392 -54.725685 -8.808452 1.023365 74.569298 3.037453 6.543566 -27.607965 6.036491 13.334691 
-0.296557 42.233829 -1.848883 22.151304 -3.779065 -0.636604 0.000000 0.000000 0.000000 16.766178 1.524342 6.164336 -7.013003 2.617174 0.185799 -15.029077 -4.116460 -2.722556 -8.451116 29.995869 24.996010 -104.422104 -7.724767 5.636912 -54.627228 -4.002174 84.285919 -13.525517 -6.354034 -55.651978 -10.162190 -19.234858 20.857288 69.301590 9.647120 70.173637 46.623432 -45.700764 42.418461 34.866226 3.982573 -79.409859 -61.360580 14.967274 12.105301 89.422661 14.706850 0.046550 -31.451719 7.599238 -1.881957 -56.908714 -10.116081 0.734907 79.103806 2.842124 6.859766 -28.951977 5.603742 13.412850 
-0.231505 41.368820 -1.954988 21.935778 -3.701164 0.116943 0.000000 0.000000 0.000000 18.315626 1.602221 6.096274 -8.536978 2.587878 0.176043 -15.732828 -4.300811 -2.986965 -8.676737 29.990170 24.989855 -105.189400 -9.516587 5.925787 -54.678635 -4.411047 84.371964 -12.743472 -5.162934 -56.132351 -9.994891 -19.383688 20.887602 69.395004 10.646201 70.028831 46.671833 -46.224300 41.902004 34.972630 3.638274 -79.410416 -64.072021 14.433701 11.169808 93.183640 14.783176 0.043046 -32.696701 7.839595 0.321729 -59.380482 -11.132643 0.624705 83.084244 2.402352 7.076472 -30.166859 5.303410 12.788966 
-0.198310 40.581970 -2.095147 22.070332 -3.359361 0.165730 0.000000 0.000000 0.000000 19.415632 1.233558 5.948825 -9.884255 2.568346 0.185798 -16.535976 -4.204587 -2.624459 -8.214986 29.994232 24.988647 -105.299316 -10.846877 5.938703 -54.897499 -5.140600 84.489830 -12.964586 -3.999874 -56.510971 -9.350442 -19.668257 21.066555 69.524246 11.884610 69.847588 47.085812 -46.661358 41.988129 35.025902 3.235378 -79.422981 -66.706276 14.325191 10.408872 96.578407 14.617291 0.022120 -33.416733 8.078522 2.028246 -62.315899 -11.483394 0.689814 86.660072 1.552567 7.149750 -31.046228 5.069366 12.583287 
